<?xml version="1.0" encoding="UTF-8"?>
<svg width="300px" height="259px" viewBox="0 0 300 259" version="1.1" xmlns="http://www.w3.org/2000/svg" xmlns:xlink="http://www.w3.org/1999/xlink">
    <!-- Generator: Sketch 59.1 (86144) - https://sketch.com -->
    <title>Group 23</title>
    <desc>Created with Sketch.</desc>
    <defs>
        <polygon id="path-1" points="0 0.730829268 299.706439 0.730829268 299.706439 47.5608293 0 47.5608293"></polygon>
        <polygon id="path-3" points="0 258.72439 299.706585 258.72439 299.706585 -5.68434189e-14 0 -5.68434189e-14"></polygon>
    </defs>
    <g id="Page-1" stroke="none" stroke-width="1" fill="none" fill-rule="evenodd">
        <g id="Group-23">
            <path d="M91.3172927,0.000146341463 C42.1772927,0.000146341463 2.34095122,39.8350244 2.34095122,88.9757561 C2.34095122,113.383317 12.1831463,135.48161 28.0977805,151.55722 L28.0977805,74.5479512 C28.0977805,62.0525854 35.8604634,52.6757561 48.7202195,52.6757561 L172.496561,52.6757561 C158.599976,21.6491707 127.514122,0.000146341463 91.3172927,0.000146341463" id="Fill-1" fill="#F4F5F9"></path>
            <path d="M280.974878,221.260829 L23.4146341,221.260829 L23.4146341,74.5476585 C23.4146341,58.9125366 33.8202439,47.9925366 48.72,47.9925366 L93.6578049,47.9925366 L93.6578049,57.359122 L48.72,57.359122 C39.0373171,57.359122 32.7804878,64.1061951 32.7804878,74.5476585 L32.7804878,211.894244 L271.609024,211.894244 L271.609024,74.5476585 C271.609024,64.908878 263.693415,57.359122 253.588537,57.359122 L215.413902,57.359122 L215.413902,47.9925366 L253.588537,47.9925366 C268.94561,47.9925366 280.974878,59.6574146 280.974878,74.5476585 L280.974878,221.260829 Z" id="Fill-3" fill="#3D5AA5"></path>
            <path d="M295.023805,216.57761 L4.68307317,216.57761 L4.68307317,221.218098 C4.68307317,237.608341 17.970878,254.041024 34.361122,254.041024 L265.345756,254.041024 C281.736732,254.041024 295.023805,237.608341 295.023805,221.218098 L295.023805,216.57761 Z" id="Fill-5" fill="#FEFEFE"></path>
            <g id="Group-9" transform="translate(0.000000, 211.163415)">
                <mask id="mask-2" fill="white">
                    <use xlink:href="#path-1"></use>
                </mask>
                <g id="Clip-8"></g>
                <path d="M9.36570732,10.0974146 C9.38839024,26.1818049 22.5722927,38.1942439 34.361561,38.1942439 L265.346195,38.1942439 C277.134732,38.1942439 290.318634,26.1818049 290.341317,10.0974146 L9.36570732,10.0974146 Z M265.346195,47.5608293 L34.361561,47.5608293 C25.2298537,47.5608293 16.5232683,43.3447317 9.84643902,35.6910732 C3.58887805,28.5174146 -0.000146341463,19.1727805 -0.000146341463,10.0542439 L-0.000146341463,0.730829268 L299.706439,0.730829268 L299.706439,10.0542439 C299.706439,19.1727805 296.118146,28.5174146 289.860585,35.6910732 C283.183756,43.3447317 274.477902,47.5608293 265.346195,47.5608293 L265.346195,47.5608293 Z" id="Fill-7" fill="#3D5AA5" mask="url(#mask-2)"></path>
            </g>
            <mask id="mask-4" fill="white">
                <use xlink:href="#path-3"></use>
            </mask>
            <g id="Clip-11"></g>
            <polygon id="Fill-10" fill="#3D5AA5" mask="url(#mask-4)" points="131.121951 239.991951 182.634146 239.991951 182.634146 230.625366 131.121951 230.625366"></polygon>
            <polygon id="Fill-12" fill="#F4F5F9" mask="url(#mask-4)" points="46.8292683 202.528537 257.560976 202.528537 257.560976 71.4073171 46.8292683 71.4073171"></polygon>
            <polygon id="Fill-13" fill="#3D5AA5" mask="url(#mask-4)" points="262.243463 202.528683 252.87761 202.528683 252.87761 76.0903902 215.414195 76.0903902 215.414195 66.7238049 262.243463 66.7238049"></polygon>
            <polygon id="Fill-14" fill="#3D5AA5" mask="url(#mask-4)" points="51.512122 202.528683 42.1462683 202.528683 42.1462683 66.7238049 93.6584634 66.7238049 93.6584634 76.0903902 51.512122 76.0903902"></polygon>
            <path d="M131.121732,108.870878 L131.121732,59.3730732 C131.121732,47.8933171 142.452951,38.550878 154.536366,38.550878 C166.61978,38.550878 177.951,47.8933171 177.951,59.3730732 L177.951,108.870878 L201.365634,108.870878 L201.365634,60.5752683 C201.365634,36.0242927 180.877829,15.2123415 154.536366,15.2123415 C128.194902,15.2123415 107.707098,36.0242927 107.707098,60.5752683 L107.707098,108.870878 L131.121732,108.870878 Z" id="Fill-15" fill="#FEFEFE" mask="url(#mask-4)"></path>
            <path d="M182.633854,104.187659 L196.682634,104.187659 L196.682634,60.5749756 C196.682634,38.1437561 177.775317,19.8957073 154.536293,19.8957073 C131.296537,19.8957073 112.389951,38.1437561 112.389951,60.5749756 L112.389951,104.187659 L126.438732,104.187659 L126.438732,59.3727805 C126.438732,45.5479024 139.305805,33.8676585 154.537024,33.8676585 C169.76678,33.8676585 182.633854,45.5479024 182.633854,59.3727805 L182.633854,104.187659 Z M206.048488,113.554244 L173.268,113.554244 L173.268,59.3727805 C173.268,50.9266829 164.340439,43.2342439 154.537024,43.2342439 C144.732878,43.2342439 135.804585,50.9266829 135.804585,59.3727805 L135.804585,113.554244 L103.024098,113.554244 L103.024098,60.5749756 C103.024098,32.9800976 126.132146,10.529122 154.536293,10.529122 C182.939707,10.529122 206.048488,32.9800976 206.048488,60.5749756 L206.048488,113.554244 Z" id="Fill-16" fill="#3D5AA5" mask="url(#mask-4)"></path>
            <path d="M224.779902,104.187659 C224.779902,99.0152195 220.58722,94.8218049 215.414049,94.8218049 L93.6579512,94.8218049 C88.4855122,94.8218049 84.2920976,99.0152195 84.2920976,104.187659 L84.2920976,183.797415 C84.2920976,188.969854 88.4855122,193.163268 93.6579512,193.163268 L215.414049,193.163268 C220.58722,193.163268 224.779902,188.969854 224.779902,183.797415 L224.779902,104.187659 Z" id="Fill-17" fill="#B1DAF5" mask="url(#mask-4)"></path>
            <path d="M93.6581707,99.5051707 C91.0759756,99.5051707 88.9752439,101.605171 88.9752439,104.187366 L88.9752439,183.797122 C88.9752439,186.380049 91.0759756,188.480049 93.6581707,188.480049 L215.414268,188.480049 C217.996463,188.480049 220.097195,186.380049 220.097195,183.797122 L220.097195,104.187366 C220.097195,101.605171 217.996463,99.5051707 215.414268,99.5051707 L93.6581707,99.5051707 Z M215.414268,197.845902 L93.6581707,197.845902 C85.9115854,197.845902 79.6093902,191.543707 79.6093902,183.797122 L79.6093902,104.187366 C79.6093902,96.4415122 85.9115854,90.1385854 93.6581707,90.1385854 L215.414268,90.1385854 C223.160854,90.1385854 229.463049,96.4415122 229.463049,104.187366 L229.463049,183.797122 C229.463049,191.543707 223.160854,197.845902 215.414268,197.845902 L215.414268,197.845902 Z" id="Fill-18" fill="#3D5AA5" mask="url(#mask-4)"></path>
            <polygon id="Fill-19" fill="#3D5AA5" mask="url(#mask-4)" points="98.3414634 179.113902 107.707317 179.113902 107.707317 169.748049 98.3414634 169.748049"></polygon>
            <polygon id="Fill-20" fill="#3D5AA5" mask="url(#mask-4)" points="98.3414634 160.382927 107.707317 160.382927 107.707317 108.871463 98.3414634 108.871463"></polygon>
            <path d="M154.536366,118.236585 C146.777341,118.236585 140.487585,124.526341 140.487585,132.285366 C140.487585,136.429024 142.31539,140.116829 145.170512,142.688049 L145.170512,155.699268 C145.170512,160.872439 149.363195,165.065854 154.536366,165.065854 C159.708805,165.065854 163.90222,160.872439 163.90222,155.699268 L163.90222,142.688049 C166.75661,140.115366 168.585146,136.429024 168.585146,132.285366 C168.585146,124.52561 162.29539,118.236585 154.536366,118.236585" id="Fill-21" fill="#FEFEFE" mask="url(#mask-4)"></path>
            <path d="M154.536366,122.919805 C149.371976,122.919805 145.170512,127.121268 145.170512,132.285659 C145.170512,134.929317 146.283439,137.387854 148.304415,139.208341 L149.853439,140.603707 L149.853439,155.699561 C149.853439,158.281756 151.954171,160.382488 154.536366,160.382488 C157.118561,160.382488 159.219293,158.281756 159.219293,155.699561 L159.219293,140.604439 L160.767585,139.209073 C162.788561,137.387122 163.90222,134.928585 163.90222,132.285659 C163.90222,127.121268 159.700756,122.919805 154.536366,122.919805 M154.536366,169.749073 C146.78978,169.749073 140.487585,163.446146 140.487585,155.699561 L140.487585,144.601024 C137.48978,141.193463 135.804659,136.812 135.804659,132.285659 C135.804659,121.956878 144.207585,113.55322 154.536366,113.55322 C164.865146,113.55322 173.268073,121.956878 173.268073,132.285659 C173.268073,136.810537 171.582951,141.192 168.585146,144.600293 L168.585146,155.699561 C168.585146,163.446146 162.282951,169.749073 154.536366,169.749073" id="Fill-22" fill="#3D5AA5" mask="url(#mask-4)"></path>
        </g>
    </g>
</svg>