<?xml version="1.0" encoding="UTF-8"?>
<svg width="300px" height="300px" viewBox="0 0 300 300" version="1.1" xmlns="http://www.w3.org/2000/svg" xmlns:xlink="http://www.w3.org/1999/xlink">
    <!-- Generator: Sketch 59.1 (86144) - https://sketch.com -->
    <title>Group 31</title>
    <desc>Created with Sketch.</desc>
    <g id="Page-1" stroke="none" stroke-width="1" fill="none" fill-rule="evenodd">
        <g id="Group-31">
            <path d="M206.388206,113.022604 C154.823587,113.022604 113.022604,154.823587 113.022604,206.388206 C113.022604,257.952826 154.823587,299.754545 206.388206,299.754545 C257.952826,299.754545 299.754545,257.952826 299.754545,206.388206 C299.754545,154.823587 257.952826,113.022604 206.388206,113.022604" id="Fill-1" fill="#F4F5F9"></path>
            <path d="M137.592383,206.388206 C99.5970516,206.388206 68.7965602,175.587715 68.7965602,137.592383 C68.7965602,99.5970516 99.5970516,68.7965602 137.592383,68.7965602 C175.587715,68.7965602 206.388206,99.5970516 206.388206,137.592383 C206.388206,175.587715 175.587715,206.388206 137.592383,206.388206 M137.592383,14.7420147 C69.7437346,14.7420147 14.7420147,69.7444717 14.7420147,137.592383 C14.7420147,205.440295 69.7437346,260.442752 137.592383,260.442752 C205.440295,260.442752 260.442752,205.440295 260.442752,137.592383 C260.442752,69.7444717 205.440295,14.7420147 137.592383,14.7420147" id="Fill-3" fill="#FEFEFE"></path>
            <path d="M137.592383,73.7108108 C102.367813,73.7108108 73.7108108,102.367813 73.7108108,137.592383 C73.7108108,172.816953 102.367813,201.473956 137.592383,201.473956 C172.816953,201.473956 201.473956,172.816953 201.473956,137.592383 C201.473956,102.367813 172.816953,73.7108108 137.592383,73.7108108 M137.592383,211.302457 C96.9486486,211.302457 63.8823096,178.236118 63.8823096,137.592383 C63.8823096,96.9486486 96.9486486,63.8823096 137.592383,63.8823096 C178.236118,63.8823096 211.302457,96.9486486 211.302457,137.592383 C211.302457,178.236118 178.236118,211.302457 137.592383,211.302457 M137.592383,19.6562654 C72.5616708,19.6562654 19.6562654,72.5616708 19.6562654,137.592383 C19.6562654,202.623096 72.5616708,255.528501 137.592383,255.528501 C202.623096,255.528501 255.528501,202.623096 255.528501,137.592383 C255.528501,72.5616708 202.623096,19.6562654 137.592383,19.6562654 M137.592383,265.357002 C67.1432432,265.357002 9.82776413,208.041523 9.82776413,137.592383 C9.82776413,67.1432432 67.1432432,9.82776413 137.592383,9.82776413 C208.041523,9.82776413 265.357002,67.1432432 265.357002,137.592383 C265.357002,208.041523 208.041523,265.357002 137.592383,265.357002" id="Fill-5" fill="#3D5AA5"></path>
            <path d="M14.7420147,63.8823096 L14.7420147,39.3125307 C14.7420147,25.7432432 25.7425061,14.7420147 39.3125307,14.7420147 L63.8823096,14.7420147" id="Stroke-7" stroke="#C7CBCE" stroke-width="13.333" stroke-linecap="round"></path>
            <path d="M260.442752,58.968059 L260.442752,39.3125307 C260.442752,25.7432432 249.441523,14.7420147 235.872236,14.7420147 L211.302457,14.7420147" id="Stroke-9" stroke="#C7CBCE" stroke-width="13.333" stroke-linecap="round"></path>
            <path d="M14.7420147,211.302457 L14.7420147,235.872236 C14.7420147,249.441523 25.7425061,260.442752 39.3125307,260.442752 L58.968059,260.442752" id="Stroke-11" stroke="#C7CBCE" stroke-width="13.333" stroke-linecap="round"></path>
            <path d="M260.442752,211.302457 L260.442752,235.872236 C260.442752,249.441523 249.441523,260.442752 235.872236,260.442752 L211.302457,260.442752" id="Stroke-13" stroke="#C7CBCE" stroke-width="13.333" stroke-linecap="round"></path>
            <path d="M147.420147,4.91425061 L127.764619,4.91425061 C122.336609,4.91425061 117.936118,9.31474201 117.936118,14.7420147 L117.936118,73.7100737 C117.936118,79.1380835 122.336609,83.5385749 127.764619,83.5385749 L147.420147,83.5385749 C152.848157,83.5385749 157.248649,79.1380835 157.248649,73.7100737 L157.248649,14.7420147 C157.248649,9.31474201 152.848157,4.91425061 147.420147,4.91425061" id="Fill-15" fill="#B1DAF5"></path>
            <path d="M127.764619,9.82850123 C125.0543,9.82850123 122.850369,12.0324324 122.850369,14.7420147 L122.850369,73.7100737 C122.850369,76.4203931 125.0543,78.6243243 127.764619,78.6243243 L147.420147,78.6243243 C150.130467,78.6243243 152.334398,76.4203931 152.334398,73.7100737 L152.334398,14.7420147 C152.334398,12.0324324 150.130467,9.82850123 147.420147,9.82850123 L127.764619,9.82850123 Z M147.420147,88.4528256 L127.764619,88.4528256 C119.635872,88.4528256 113.021867,81.8388206 113.021867,73.7100737 L113.021867,14.7420147 C113.021867,6.61326781 119.635872,-5.68434189e-14 127.764619,-5.68434189e-14 L147.420147,-5.68434189e-14 C155.548894,-5.68434189e-14 162.162899,6.61326781 162.162899,14.7420147 L162.162899,73.7100737 C162.162899,81.8388206 155.548894,88.4528256 147.420147,88.4528256 L147.420147,88.4528256 Z" id="Fill-17" fill="#3D5AA5"></path>
            <path d="M147.420147,191.646192 L127.764619,191.646192 C122.336609,191.646192 117.936118,196.046683 117.936118,201.474693 L117.936118,260.442752 C117.936118,265.870025 122.336609,270.270516 127.764619,270.270516 L147.420147,270.270516 C152.848157,270.270516 157.248649,265.870025 157.248649,260.442752 L157.248649,201.474693 C157.248649,196.046683 152.848157,191.646192 147.420147,191.646192" id="Fill-19" fill="#B1DAF5"></path>
            <path d="M127.764619,196.560442 C125.0543,196.560442 122.850369,198.764373 122.850369,201.474693 L122.850369,260.442752 C122.850369,263.152334 125.0543,265.356265 127.764619,265.356265 L147.420147,265.356265 C150.130467,265.356265 152.334398,263.152334 152.334398,260.442752 L152.334398,201.474693 C152.334398,198.764373 150.130467,196.560442 147.420147,196.560442 L127.764619,196.560442 Z M147.420147,275.184767 L127.764619,275.184767 C119.635872,275.184767 113.021867,268.571499 113.021867,260.442752 L113.021867,201.474693 C113.021867,193.345946 119.635872,186.731941 127.764619,186.731941 L147.420147,186.731941 C155.548894,186.731941 162.162899,193.345946 162.162899,201.474693 L162.162899,260.442752 C162.162899,268.571499 155.548894,275.184767 147.420147,275.184767 L147.420147,275.184767 Z" id="Fill-21" fill="#3D5AA5"></path>
            <path d="M270.270516,147.420147 L270.270516,127.764619 C270.270516,122.336609 265.870025,117.936118 260.442752,117.936118 L201.474693,117.936118 C196.046683,117.936118 191.646192,122.336609 191.646192,127.764619 L191.646192,147.420147 C191.646192,152.84742 196.046683,157.248649 201.474693,157.248649 L260.442752,157.248649 C265.870025,157.248649 270.270516,152.84742 270.270516,147.420147" id="Fill-23" fill="#B1DAF5"></path>
            <path d="M201.474693,122.850369 C198.764373,122.850369 196.560442,125.0543 196.560442,127.764619 L196.560442,147.420147 C196.560442,150.130467 198.764373,152.334398 201.474693,152.334398 L260.442752,152.334398 C263.152334,152.334398 265.356265,150.130467 265.356265,147.420147 L265.356265,127.764619 C265.356265,125.0543 263.152334,122.850369 260.442752,122.850369 L201.474693,122.850369 Z M260.442752,162.162899 L201.474693,162.162899 C193.345946,162.162899 186.731941,155.548894 186.731941,147.420147 L186.731941,127.764619 C186.731941,119.635872 193.345946,113.021867 201.474693,113.021867 L260.442752,113.021867 C268.571499,113.021867 275.184767,119.635872 275.184767,127.764619 L275.184767,147.420147 C275.184767,155.548894 268.571499,162.162899 260.442752,162.162899 L260.442752,162.162899 Z" id="Fill-25" fill="#3D5AA5"></path>
            <path d="M83.5385749,147.420147 L83.5385749,127.764619 C83.5385749,122.336609 79.1380835,117.936118 73.7100737,117.936118 L14.7420147,117.936118 C9.31474201,117.936118 4.91425061,122.336609 4.91425061,127.764619 L4.91425061,147.420147 C4.91425061,152.848157 9.31474201,157.248649 14.7420147,157.248649 L73.7100737,157.248649 C79.1380835,157.248649 83.5385749,152.848157 83.5385749,147.420147" id="Fill-27" fill="#B1DAF5"></path>
            <path d="M14.7420147,122.850369 C12.0324324,122.850369 9.82850123,125.0543 9.82850123,127.764619 L9.82850123,147.420147 C9.82850123,150.130467 12.0324324,152.334398 14.7420147,152.334398 L73.7100737,152.334398 C76.4203931,152.334398 78.6243243,150.130467 78.6243243,147.420147 L78.6243243,127.764619 C78.6243243,125.0543 76.4203931,122.850369 73.7100737,122.850369 L14.7420147,122.850369 Z M73.7100737,162.162899 L14.7420147,162.162899 C6.61326781,162.162899 0,155.548894 0,147.420147 L0,127.764619 C0,119.635872 6.61326781,113.021867 14.7420147,113.021867 L73.7100737,113.021867 C81.8388206,113.021867 88.4528256,119.635872 88.4528256,127.764619 L88.4528256,147.420147 C88.4528256,155.548894 81.8388206,162.162899 73.7100737,162.162899 L73.7100737,162.162899 Z" id="Fill-29" fill="#3D5AA5"></path>
        </g>
    </g>
</svg>