<?xml version="1.0" encoding="UTF-8"?>
<svg width="314px" height="293px" viewBox="0 0 314 293" version="1.1" xmlns="http://www.w3.org/2000/svg" xmlns:xlink="http://www.w3.org/1999/xlink">
    <!-- Generator: Sketch 59.1 (86144) - https://sketch.com -->
    <title>Group 38</title>
    <desc>Created with Sketch.</desc>
    <defs>
        <polygon id="path-1" points="0.640223881 0.0570895522 245.841716 0.0570895522 245.841716 263.432836 0.640223881 263.432836"></polygon>
    </defs>
    <g id="Page-1" stroke="none" stroke-width="1" fill="none" fill-rule="evenodd">
        <g id="Group-38" transform="translate(7.000000, 7.000000)">
            <path d="M150.106642,27.505 L225.461866,27.505 C228.434254,48.8266418 246.055149,62.8818657 267.377537,65.855 L267.377537,173.289328 C267.377537,230.763955 164.809627,280.219179 150.106642,280.219179 C135.403657,280.219179 32.8357463,230.763955 32.8357463,173.289328 L32.8357463,65.855 C54.1581343,62.8818657 71.7790299,48.8266418 74.7514179,27.505 L150.106642,27.505 Z" id="Fill-1" fill="#FEFEFE"></path>
            <g id="Group-5" transform="translate(26.865672, 22.117164)">
                <mask id="mask-2" fill="white">
                    <use xlink:href="#path-1"></use>
                </mask>
                <g id="Clip-4"></g>
                <path d="M11.3006716,48.2123134 L11.3006716,151.172015 C11.3006716,164.048881 17.9111194,190.354104 62.1820149,221.846642 C90.4208209,241.934701 118.137239,252.771269 123.24097,252.771269 C128.344701,252.771269 156.061119,241.934701 184.299925,221.846642 C228.570821,190.354104 235.181269,164.048881 235.181269,151.172015 L235.181269,48.2123134 C214.161866,43.7600746 198.693209,29.5973881 194.182761,10.7182836 L52.2991791,10.7182836 C47.7887313,29.5973881 32.3200746,43.7600746 11.3006716,48.2123134 M123.24097,263.433209 C113.332015,263.433209 82.4715672,249.36306 56.0021642,230.533955 C10.2447015,197.983209 0.640223881,169.410075 0.640223881,151.172015 L0.640223881,39.0988806 L5.23425373,38.4585821 C25.4670896,35.6369403 40.1372388,22.3675373 42.6066418,4.65186567 L43.2476866,0.0570895522 L203.234254,0.0570895522 L203.875299,4.65186567 C206.344701,22.3675373 221.014851,35.6369403 241.247687,38.4585821 L245.841716,39.0988806 L245.841716,151.172015 C245.841716,169.410075 236.237239,197.983209 190.479776,230.533955 C164.010373,249.36306 133.149925,263.433209 123.24097,263.433209" id="Fill-3" fill="#3D5AA5" mask="url(#mask-2)"></path>
            </g>
            <path d="M299.360373,123.453731 L299.360373,173.291791 C299.360373,209.517164 275.809627,244.201493 231.254403,275.796269" id="Stroke-6" stroke="#C7CBCE" stroke-width="14.286"></path>
            <line x1="187.420075" y1="0.852537313" x2="230.064104" y2="0.852537313" id="Stroke-8" stroke="#C7CBCE" stroke-width="14.286"></line>
            <line x1="70.1494776" y1="0.852537313" x2="112.793507" y2="0.852537313" id="Stroke-10" stroke="#C7CBCE" stroke-width="14.286"></line>
            <path d="M68.9586567,275.796045 C24.4034328,244.202015 0.852686567,209.517687 0.852686567,173.292313 L0.852686567,123.453507" id="Stroke-12" stroke="#C7CBCE" stroke-width="14.286"></path>
            <path d="M145.168433,230.12097 C99.2572388,230.12097 61.9072388,192.769478 61.9072388,146.85903 C61.9072388,100.948582 99.2572388,63.5970896 145.168433,63.5970896 C155.410224,63.5970896 165.413209,65.4358955 174.899776,69.0635075 L171.092313,79.0209701 C162.825896,75.8605224 154.104254,74.2582836 145.168433,74.2582836 C105.136343,74.2582836 72.5676866,106.82694 72.5676866,146.85903 C72.5676866,186.891119 105.136343,219.459776 145.168433,219.459776 C185.200522,219.459776 217.769179,186.891119 217.769179,146.85903 L228.429627,146.85903 C228.429627,192.769478 191.079627,230.12097 145.168433,230.12097" id="Fill-14" fill="#3D5AA5"></path>
            <polygon id="Fill-16" fill="#B1DAF5" points="220.362239 69.4512687 150.106269 139.707985 120.833134 110.434104 97.4144776 133.852761 150.106269 186.544552 243.781642 92.8699254"></polygon>
            <path d="M104.952985,133.852687 L150.106716,179.005672 L236.243284,92.8698507 L220.36194,76.99 L150.106716,147.24597 L120.832836,117.972836 L104.952985,133.852687 Z M150.106716,194.082537 L89.8761194,133.852687 L120.832836,102.89597 L150.106716,132.169104 L220.36194,61.9131343 L251.320149,92.8698507 L150.106716,194.082537 Z" id="Fill-18" fill="#3D5AA5"></path>
            <line x1="299.360373" y1="59.4878358" x2="299.360373" y2="70.1490299" id="Stroke-20" stroke="#C7CBCE" stroke-width="14.286"></line>
            <line x1="299.360373" y1="80.81" x2="299.360373" y2="91.471194" id="Stroke-22" stroke="#C7CBCE" stroke-width="14.286"></line>
            <line x1="299.360373" y1="102.131866" x2="299.360373" y2="112.79306" id="Stroke-24" stroke="#C7CBCE" stroke-width="14.286"></line>
            <line x1="0.852910448" y1="59.4878358" x2="0.852910448" y2="70.1490299" id="Stroke-26" stroke="#C7CBCE" stroke-width="14.286"></line>
            <line x1="0.852910448" y1="80.81" x2="0.852910448" y2="91.471194" id="Stroke-28" stroke="#C7CBCE" stroke-width="14.286"></line>
            <line x1="0.852910448" y1="102.131866" x2="0.852910448" y2="112.79306" id="Stroke-30" stroke="#C7CBCE" stroke-width="14.286"></line>
            <line x1="144.776343" y1="0.852537313" x2="155.436791" y2="0.852537313" id="Stroke-32" stroke="#C7CBCE" stroke-width="14.286"></line>
            <line x1="123.454478" y1="0.852537313" x2="134.114925" y2="0.852537313" id="Stroke-34" stroke="#C7CBCE" stroke-width="14.286"></line>
            <line x1="166.098209" y1="0.852537313" x2="176.758657" y2="0.852537313" id="Stroke-36" stroke="#C7CBCE" stroke-width="14.286"></line>
        </g>
    </g>
</svg>