<?xml version="1.0" encoding="UTF-8"?>
<svg width="300px" height="278px" viewBox="0 0 300 278" version="1.1" xmlns="http://www.w3.org/2000/svg" xmlns:xlink="http://www.w3.org/1999/xlink">
    <!-- Generator: Sketch 59.1 (86144) - https://sketch.com -->
    <title>Slice 1</title>
    <desc>Created with Sketch.</desc>
    <defs>
        <polygon id="path-1" points="0 0.29273861 196.136286 0.29273861 196.136286 196.678736 0 196.678736"></polygon>
        <polygon id="path-3" points="0.000294840295 0.467745536 299.520147 0.467745536 299.520147 206.25 0.000294840295 206.25"></polygon>
        <polygon id="path-5" points="0.19873811 0.503405992 121.88853 0.503405992 121.88853 122.192903 0.19873811 122.192903"></polygon>
        <polygon id="path-7" points="0 276.732833 300 276.732833 300 0.417043838 0 0.417043838"></polygon>
    </defs>
    <g id="Page-1" stroke="none" stroke-width="1" fill="none" fill-rule="evenodd">
        <g id="Group-25">
            <g id="Group-3" transform="translate(0.000000, 0.417044)">
                <mask id="mask-2" fill="white">
                    <use xlink:href="#path-1"></use>
                </mask>
                <g id="Clip-2"></g>
                <path d="M196.136286,98.4857374 C196.136286,152.716393 152.229925,196.678736 98.0683268,196.678736 C43.9067286,196.678736 -0.000367755766,152.716393 -0.000367755766,98.4857374 C-0.000367755766,44.2550815 43.9067286,0.29273861 98.0683268,0.29273861 C152.229925,0.29273861 196.136286,44.2550815 196.136286,98.4857374" id="Fill-1" fill="#F4F5F9" mask="url(#mask-2)"></path>
            </g>
            <path d="M271.668117,75.3742337 L271.668117,56.6670438 L187.436202,56.6670438 C161.914417,56.6670438 150.000369,73.6925975 150.000369,94.080687 C150.000369,73.6925975 138.08632,56.6670438 112.563798,56.6670438 L28.3318828,56.6670438 L28.3318828,75.449366 L4.93421053,75.3742337 L4.93421053,257.768046 L112.563798,257.768046 L126.602696,271.798623 L173.398041,271.798623 L187.436202,257.768046 L295.065789,257.768046 L295.065789,75.3742337 L271.668117,75.3742337 Z" id="Fill-4" fill="#FEFEFE"></path>
            <g id="Group-8" transform="translate(0.000000, 70.482833)">
                <mask id="mask-4" fill="white">
                    <use xlink:href="#path-3"></use>
                </mask>
                <g id="Clip-7"></g>
                <path d="M173.16,206.25 L126.36,206.25 C125.118722,206.25 123.928305,205.75721 123.051155,204.880647 L110.381867,192.219844 L4.68014742,192.219844 C2.09513514,192.219844 0.000294840295,190.12567 0.000294840295,187.543125 L0.000294840295,5.14446429 C0.000294840295,2.56191964 2.09513514,0.467745536 4.68014742,0.467745536 C7.2644226,0.467745536 9.36,2.56191964 9.36,5.14446429 L9.36,182.86567 L112.319705,182.86567 C113.56172,182.86567 114.7514,183.35846 115.629287,184.235759 L128.298575,196.896562 L171.221425,196.896562 L183.890713,184.235759 C184.7686,183.35846 185.959017,182.86567 187.200295,182.86567 L290.16,182.86567 L290.16,122.066116 C290.16,119.483571 292.255577,117.389397 294.84059,117.389397 C297.424865,117.389397 299.520442,119.483571 299.520442,122.066116 L299.520442,187.543125 C299.520442,190.12567 297.424865,192.219844 294.84059,192.219844 L189.13887,192.219844 L176.469582,204.880647 C175.591695,205.75721 174.401278,206.25 173.16,206.25" id="Fill-6" fill="#3D5AA5" mask="url(#mask-4)"></path>
            </g>
            <path d="M150.246869,253.048623 L140.871447,253.048623 C139.400054,253.048623 138.013564,252.358438 137.127627,251.184533 C133.575022,246.474905 123.81348,239.003798 112.746658,239.003798 L28.3715523,239.003798 C25.7831415,239.003798 23.6842105,236.907435 23.6842105,234.32219 L23.6842105,56.4144415 C23.6842105,53.8291969 25.7831415,51.7328333 28.3715523,51.7328333 L56.4970797,51.7328333 L56.4970797,61.0967871 L33.0596324,61.0967871 L33.0596324,229.639844 L112.746658,229.639844 C125.292255,229.639844 136.816073,236.608059 143.086288,243.685406 L145.559527,243.685406 L145.559527,93.868782 C145.559527,73.3475729 133.292999,61.0967871 112.746658,61.0967871 L93.9965523,61.0967871 L93.9965523,51.7328333 L112.746658,51.7328333 C138.374583,51.7328333 154.934211,68.2722052 154.934211,93.868782 L154.934211,248.367015 C154.934211,250.952259 152.83528,253.048623 150.246869,253.048623" id="Fill-9" fill="#3D5AA5"></path>
            <path d="M159.127894,253.048623 L149.753158,253.048623 C147.163994,253.048623 145.065789,250.952259 145.065789,248.367015 L145.065789,93.868782 C145.065789,68.2722052 161.624772,51.7328333 187.252841,51.7328333 L271.628421,51.7328333 C274.216847,51.7328333 276.315789,53.8291969 276.315789,56.4144415 L276.315789,75.1423491 C276.315789,77.7283312 274.216847,79.8246947 271.628421,79.8246947 C269.039996,79.8246947 266.941053,77.7283312 266.941053,75.1423491 L266.941053,61.0967871 L187.252841,61.0967871 C166.707122,61.0967871 154.440526,73.3475729 154.440526,93.868782 L154.440526,243.685406 L156.913041,243.685406 C163.183291,236.608059 174.707173,229.639844 187.252841,229.639844 L266.941053,229.639844 L266.941053,215.59502 C266.941053,213.009038 269.039996,210.912674 271.628421,210.912674 C274.216847,210.912674 276.315789,213.009038 276.315789,215.59502 L276.315789,234.32219 C276.315789,236.907435 274.216847,239.003798 271.628421,239.003798 L187.252841,239.003798 C176.185957,239.003798 166.424359,246.474905 162.871735,251.184533 C161.985793,252.358438 160.600033,253.048623 159.127894,253.048623" id="Fill-11" fill="#3D5AA5"></path>
            <polygon id="Fill-13" fill="#B1DAF5" points="56.25 122.785465 75.0003691 108.72338 93.75 122.785465 93.75 47.7854649 56.25 47.7854649"></polygon>
            <path d="M60.5919592,52.1711851 L60.5919592,112.752937 L71.723655,104.364412 C73.3731739,103.121804 75.6407145,103.12107 77.2895029,104.364412 L88.4211987,112.752937 L88.4211987,52.1711851 L60.5919592,52.1711851 Z M55.9531438,126.732833 C55.2459984,126.732833 54.5359309,126.570626 53.8799221,126.241074 C52.308569,125.451324 51.3157895,123.838062 51.3157895,122.072868 L51.3157895,47.5112198 C51.3157895,44.9379265 53.3926638,42.8512544 55.9538743,42.8512544 L93.0592836,42.8512544 C95.6212246,42.8512544 97.6973684,44.9379265 97.6973684,47.5112198 L97.6973684,122.072868 C97.6973684,123.838062 96.7053194,125.451324 95.1339664,126.241074 C93.5626133,127.030091 91.6822494,126.859076 90.2767249,125.800693 L74.5069442,113.917745 L58.736433,125.800693 C57.9182483,126.417227 56.9393486,126.732833 55.9531438,126.732833 L55.9531438,126.732833 Z" id="Fill-15" fill="#3D5AA5"></path>
            <g id="Group-19" transform="translate(177.631579, 84.298623)">
                <mask id="mask-6" fill="white">
                    <use xlink:href="#path-5"></use>
                </mask>
                <g id="Clip-18"></g>
                <path d="M61.0438554,9.86385304 C32.6551189,9.86385304 9.55992232,32.9597868 9.55992232,61.3477861 C9.55992232,89.7365227 32.6551189,112.832456 61.0438554,112.832456 C89.4325919,112.832456 112.527789,89.7365227 112.527789,61.3477861 C112.527789,32.9597868 89.4325919,9.86385304 61.0438554,9.86385304 M61.0438554,122.192903 C27.4935304,122.192903 0.19873811,94.8981111 0.19873811,61.3477861 C0.19873811,27.7981983 27.4935304,0.503405992 61.0438554,0.503405992 C94.5941804,0.503405992 121.888973,27.7981983 121.888973,61.3477861 C121.888973,94.8981111 94.5941804,122.192903 61.0438554,122.192903" id="Fill-17" fill="#3D5AA5" mask="url(#mask-6)"></path>
            </g>
            <polygon id="Fill-20" fill="#3D5AA5" points="252.631579 178.048623 234.21101 178.048623 234.21101 140.943798 225 140.943798 225 131.667044 243.421294 131.667044 243.421294 168.772599 252.631579 168.772599"></polygon>
            <mask id="mask-8" fill="white">
                <use xlink:href="#path-7"></use>
            </mask>
            <g id="Clip-23"></g>
            <polygon id="Fill-22" fill="#3D5AA5" mask="url(#mask-8)" points="225 178.048623 238.815789 178.048623 238.815789 169.167044 225 169.167044"></polygon>
            <polygon id="Fill-24" fill="#3D5AA5" mask="url(#mask-8)" points="233.881579 122.785465 242.763158 122.785465 242.763158 108.969675 233.881579 108.969675"></polygon>
        </g>
    </g>
</svg>