<?xml version="1.0" encoding="UTF-8"?>
<svg width="13px" height="15px" viewBox="0 0 13 15" version="1.1" xmlns="http://www.w3.org/2000/svg" xmlns:xlink="http://www.w3.org/1999/xlink">
    <!-- Generator: Sketch 59.1 (86144) - https://sketch.com -->
    <title>Shape</title>
    <desc>Created with Sketch.</desc>
    <g id="Page-1" stroke="none" stroke-width="1" fill="none" fill-rule="evenodd">
        <path d="M5.20184889,6.01428845e-05 C5.02817616,-0.0023081668 4.86080252,0.065353501 4.73715502,0.187915073 C4.61350752,0.310476645 4.54390055,0.47771431 4.54389917,0.652231441 L0.658320006,0.652231441 C0.424240049,0.648905179 0.206510608,0.772475717 0.0885045465,0.975625481 C-0.0295015155,1.17877524 -0.0295015155,1.43003023 0.0885045465,1.63318 C0.206510608,1.83632976 0.424240049,1.9599003 0.658320006,1.95657404 L12.34168,1.95657404 C12.57576,1.9599003 12.7934894,1.83632976 12.9114955,1.63318 C13.0295015,1.43003023 13.0295015,1.17877524 12.9114955,0.975625481 C12.7934894,0.772475717 12.57576,0.648905179 12.34168,0.652231441 L8.45610083,0.652231441 C8.45609945,0.47771431 8.38649248,0.310476645 8.26284498,0.187915073 C8.13919748,0.065353501 7.97182384,-0.0023081668 7.79815111,6.01428845e-05 L5.20184889,6.01428845e-05 Z M0.658320006,3.26091663 L0.658320006,13.6956574 C0.658320006,14.4163067 1.23924263,15 1.95647112,15 L11.0435289,15 C11.7607574,15 12.34168,14.4163067 12.34168,13.6956574 L12.34168,3.26091663 L0.658320006,3.26091663 Z" id="Shape" fill="#8898AA" fill-rule="nonzero"></path>
    </g>
</svg>
