<?xml version="1.0" encoding="UTF-8"?>
<svg width="236px" height="237px" viewBox="0 0 236 237" version="1.1" xmlns="http://www.w3.org/2000/svg" xmlns:xlink="http://www.w3.org/1999/xlink">
    <!-- Generator: Sketch 59.1 (86144) - https://sketch.com -->
    <title>Slice 1</title>
    <desc>Created with Sketch.</desc>
    <g id="Page-1" stroke="none" stroke-width="1" fill="none" fill-rule="evenodd">
        <g id="Group-16">
            <g id="Group-15" transform="translate(0.000000, 0.500000)">
                <path d="M236,118 C236,183.170203 183.170203,236 118,236 C52.8297971,236 0,183.170203 0,118 C0,52.8297971 52.8297971,0 118,0 C183.170203,0 236,52.8297971 236,118" id="Fill-1" fill="#E5E9F2"></path>
                <path d="M206.927536,56.4347826 L206.927536,42.7536232 L145.362319,42.7536232 C126.708058,42.7536232 118,55.2068986 118,70.115942 C118,55.2068986 109.291942,42.7536232 90.6376812,42.7536232 L29.0724638,42.7536232 L29.0724638,56.4895072 L11.9710145,56.4347826 L11.9710145,189.826087 L90.6376812,189.826087 L100.898551,200.086957 L135.101449,200.086957 L145.362319,189.826087 L224.028986,189.826087 L224.028986,56.4347826 L206.927536,56.4347826 Z" id="Fill-3" fill="#F5F6FA"></path>
                <path d="M135.101449,203.507246 L100.898551,203.507246 C99.9887536,203.507246 99.12,203.148116 98.4804058,202.505101 L89.2216812,193.246377 L11.9710145,193.246377 C10.0795942,193.246377 8.55072464,191.714087 8.55072464,189.826087 L8.55072464,56.4347826 C8.55072464,54.5467826 10.0795942,53.0144928 11.9710145,53.0144928 C13.8624348,53.0144928 15.3913043,54.5467826 15.3913043,56.4347826 L15.3913043,186.405797 L90.6376812,186.405797 C91.5474783,186.405797 92.4162319,186.764928 93.0558261,187.407942 L102.314551,196.666667 L133.685449,196.666667 L142.944174,187.407942 C143.583768,186.764928 144.452522,186.405797 145.362319,186.405797 L220.608696,186.405797 L220.608696,56.4347826 C220.608696,54.5467826 222.137565,53.0144928 224.028986,53.0144928 C225.920406,53.0144928 227.449275,54.5467826 227.449275,56.4347826 L227.449275,189.826087 C227.449275,191.714087 225.920406,193.246377 224.028986,193.246377 L146.778319,193.246377 L137.519594,202.505101 C136.88,203.148116 136.011246,203.507246 135.101449,203.507246" id="Fill-5" fill="#2A5082"></path>
                <path d="M118,186.405797 L111.15942,186.405797 C110.08887,186.405797 109.076464,185.903014 108.426609,185.044522 C105.834029,181.60371 98.7129855,176.144928 90.6376812,176.144928 L29.0724638,176.144928 C27.1810435,176.144928 25.6521739,174.612638 25.6521739,172.724638 L25.6521739,42.7536232 C25.6521739,40.8656232 27.1810435,39.3333333 29.0724638,39.3333333 L49.5942029,39.3333333 L49.5942029,46.173913 L32.4927536,46.173913 L32.4927536,169.304348 L90.6376812,169.304348 C99.7937971,169.304348 108.20087,174.393739 112.777217,179.565217 L114.57971,179.565217 L114.57971,70.115942 C114.57971,55.1248116 105.628812,46.173913 90.6376812,46.173913 L76.9565217,46.173913 L76.9565217,39.3333333 L90.6376812,39.3333333 C109.339826,39.3333333 121.42029,51.4172174 121.42029,70.115942 L121.42029,182.985507 C121.42029,184.873507 119.89142,186.405797 118,186.405797" id="Fill-7" fill="#2A5082"></path>
                <path d="M118,186.405797 C116.10858,186.405797 114.57971,184.873507 114.57971,182.985507 L114.57971,70.115942 C114.57971,51.4172174 126.660174,39.3333333 145.362319,39.3333333 L206.927536,39.3333333 C208.818957,39.3333333 210.347826,40.8656232 210.347826,42.7536232 L210.347826,162.463768 C210.347826,164.351768 208.818957,165.884058 206.927536,165.884058 C205.036116,165.884058 203.507246,164.351768 203.507246,162.463768 L203.507246,46.173913 L145.362319,46.173913 C130.371188,46.173913 121.42029,55.1248116 121.42029,70.115942 L121.42029,179.565217 L123.222783,179.565217 C127.79913,174.393739 136.206203,169.304348 145.362319,169.304348 L203.507246,169.304348 L203.507246,159.043478 C203.507246,157.155478 205.036116,155.623188 206.927536,155.623188 C208.818957,155.623188 210.347826,157.155478 210.347826,159.043478 L210.347826,172.724638 C210.347826,174.612638 208.818957,176.144928 206.927536,176.144928 L145.362319,176.144928 C137.287014,176.144928 130.165971,181.60371 127.573391,185.044522 C126.923536,185.903014 125.91113,186.405797 124.84058,186.405797 L118,186.405797 Z" id="Fill-9" fill="#2A5082"></path>
                <polygon id="Fill-11" fill="#3C5FE1" points="49.5942029 90.6376812 63.2753623 80.3768116 76.9565217 90.6376812 76.9565217 35.9130435 49.5942029 35.9130435"></polygon>
                <path d="M63.2753623,76.9565217 C63.9970435,76.9565217 64.7187246,77.1856812 65.3275362,77.6405797 L73.5362319,83.7971014 L73.5362319,39.3333333 L53.0144928,39.3333333 L53.0144928,83.7971014 L61.2231884,77.6405797 C61.832,77.1856812 62.5536812,76.9565217 63.2753623,76.9565217 M76.9565217,94.057971 C76.2314203,94.057971 75.5063188,93.8253913 74.9043478,93.373913 L63.2753623,84.6521739 L51.6463768,93.373913 C50.6134493,94.1537391 49.2248116,94.2768696 48.0653333,93.6988406 C46.9058551,93.1173913 46.173913,91.933971 46.173913,90.6376812 L46.173913,35.9130435 C46.173913,34.0250435 47.7027826,32.4927536 49.5942029,32.4927536 L76.9565217,32.4927536 C78.847942,32.4927536 80.3768116,34.0250435 80.3768116,35.9130435 L80.3768116,90.6376812 C80.3768116,91.933971 79.6448696,93.1173913 78.4853913,93.6988406 C78.0031304,93.9382609 77.4764058,94.057971 76.9565217,94.057971" id="Fill-13" fill="#2A5082"></path>
            </g>
        </g>
    </g>
</svg>