<?xml version="1.0" encoding="UTF-8"?>
<svg width="18px" height="12px" viewBox="0 0 18 12" version="1.1" xmlns="http://www.w3.org/2000/svg" xmlns:xlink="http://www.w3.org/1999/xlink">
    <!-- Generator: Sketch 59.1 (86144) - https://sketch.com -->
    <title>Show / Hide Password</title>
    <desc></desc>
    <g id="Page-1" stroke="none" stroke-width="1" fill="inherit" fill-rule="evenodd">
        <g id="icons8-eye" fill="inherit">
            <path d="M9,0 C3.6490218,0 0.192592878,5.526708 0.130078128,5.6273436 C0.0459320349,5.73333756 0,5.86466606 0,6 C0,6.11609948 0.0338939983,6.22967454 0.097265628,6.3269532 C0.0980427478,6.32812775 0.0988240006,6.32929955 0.099609372,6.3304686 C0.109925568,6.3517566 3.01129878,12 9,12 C14.9632932,12 17.8603956,6.4072446 17.8957032,6.3386718 C17.8980914,6.33479242 17.9004354,6.33088597 17.9027346,6.3269532 C17.9661061,6.22967452 18,6.11609946 18,6 C18,5.86520749 17.9545703,5.73434855 17.8710936,5.6285154 C17.8707035,5.62812426 17.8703129,5.62773366 17.8699218,5.6273436 C17.8074072,5.526708 14.3509782,0 9,0 Z M9,1.8 C11.3196,1.8 13.2,3.6804 13.2,6 C13.2,8.3196 11.3196,10.2 9,10.2 C6.6804,10.2 4.8,8.3196 4.8,6 C4.8,3.6804 6.6804,1.8 9,1.8 Z M9,4.2 C8.00588745,4.2 7.2,5.00588745 7.2,6 C7.2,6.99411255 8.00588745,7.8 9,7.8 C9.99411255,7.8 10.8,6.99411255 10.8,6 C10.8,5.00588745 9.99411255,4.2 9,4.2 Z" id="Shape"></path>
        </g>
    </g>
</svg>
