<?xml version="1.0" encoding="UTF-8"?>
<svg width="19px" height="23px" viewBox="0 0 19 23" version="1.1" xmlns="http://www.w3.org/2000/svg" xmlns:xlink="http://www.w3.org/1999/xlink">
    <!-- Generator: Sketch 59.1 (86144) - https://sketch.com -->
    <title>Slice 1</title>
    <desc>Created with Sketch.</desc>
    <g id="Page-1" stroke="none" stroke-width="1" fill="none" fill-rule="evenodd">
        <g id="icons8-resume" fill="#99A9BE">
            <path d="M17.0461538,0 L2.64615385,0 C1.65165385,0 0.846153846,0.791730769 0.846153846,1.76923077 L0.846153846,21.2307692 C0.846153846,22.2082692 1.65165385,23 2.64615385,23 L17.0461538,23 C18.0406538,23 18.8461538,22.2082692 18.8461538,21.2307692 L18.8461538,1.76923077 C18.8461538,0.791730769 18.0406538,0 17.0461538,0 Z M6.02115385,9.04253846 L6.02115385,8.24373077 C5.85195385,8.15526923 5.36955385,7.54311538 5.31915385,7.06542308 C5.18685385,7.05480769 4.97805385,6.92476923 4.91595385,6.41257692 C4.88355385,6.13746154 5.01495385,5.98265385 5.09415385,5.934 C5.09415385,5.934 4.89615385,5.49080769 4.89615385,5.04938462 C4.89615385,3.74015385 5.55585385,2.65384615 7.14615385,2.65384615 C8.00475385,2.65384615 8.27115385,3.25273077 8.27115385,3.25273077 C9.03885385,3.25273077 9.39615385,4.07984615 9.39615385,5.04938462 C9.39615385,5.53326923 9.19815385,5.934 9.19815385,5.934 C9.27735385,5.98265385 9.40875385,6.13746154 9.37635385,6.41257692 C9.31515385,6.92476923 9.10635385,7.05480769 8.97405385,7.06542308 C8.92365385,7.54311538 8.44125385,8.15526923 8.27205385,8.24373077 L8.27205385,9.04253846 C8.60865385,10.1191154 10.2520538,9.59188462 10.7470538,11.5 L3.54615385,11.5 C4.04115385,9.59188462 5.68455385,10.1191154 6.02115385,9.04253846 Z M15.2461538,19.4615385 L4.44615385,19.4615385 C3.94935385,19.4615385 3.54615385,19.0652308 3.54615385,18.5769231 C3.54615385,18.0886154 3.94935385,17.6923077 4.44615385,17.6923077 L15.2461538,17.6923077 C15.7429538,17.6923077 16.1461538,18.0886154 16.1461538,18.5769231 C16.1461538,19.0652308 15.7429538,19.4615385 15.2461538,19.4615385 Z M15.2461538,15.9230769 L4.44615385,15.9230769 C3.94935385,15.9230769 3.54615385,15.5267692 3.54615385,15.0384615 C3.54615385,14.5501538 3.94935385,14.1538462 4.44615385,14.1538462 L15.2461538,14.1538462 C15.7429538,14.1538462 16.1461538,14.5501538 16.1461538,15.0384615 C16.1461538,15.5267692 15.7429538,15.9230769 15.2461538,15.9230769 Z M15.2461538,11.5 L13.4461538,11.5 C12.9493538,11.5 12.5461538,11.1036923 12.5461538,10.6153846 C12.5461538,10.1270769 12.9493538,9.73076923 13.4461538,9.73076923 L15.2461538,9.73076923 C15.7429538,9.73076923 16.1461538,10.1270769 16.1461538,10.6153846 C16.1461538,11.1036923 15.7429538,11.5 15.2461538,11.5 Z M15.2461538,7.96153846 L13.4461538,7.96153846 C12.9493538,7.96153846 12.5461538,7.56523077 12.5461538,7.07692308 C12.5461538,6.58861538 12.9493538,6.19230769 13.4461538,6.19230769 L15.2461538,6.19230769 C15.7429538,6.19230769 16.1461538,6.58861538 16.1461538,7.07692308 C16.1461538,7.56523077 15.7429538,7.96153846 15.2461538,7.96153846 Z" id="Shape"></path>
        </g>
    </g>
</svg>