<?xml version="1.0" encoding="UTF-8"?>
<svg width="18px" height="25px" viewBox="0 0 18 25" version="1.1" xmlns="http://www.w3.org/2000/svg" xmlns:xlink="http://www.w3.org/1999/xlink">
    <!-- Generator: Sketch 59.1 (86144) - https://sketch.com -->
    <title>Slice 1</title>
    <desc>Created with Sketch.</desc>
    <g id="Page-1" stroke="none" stroke-width="1" fill="none" fill-rule="evenodd">
        <g id="icons8-lock" fill="#99A9BE">
            <path d="M9,-4.4408921e-16 C5.698375,-4.4408921e-16 3,2.6983746 3,6 L3,9.304688 C1.1627428,10.952391 0,13.337544 0,16 C0,20.971 4.029,25 9,25 C13.971,25 18,20.971 18,16 C18,13.337544 16.837257,10.952391 15,9.304688 L15,6 C15,2.8243068 12.483967,0.2673277 9.355469,0.0722656 C9.24237496,0.0267104649 9.1219041,0.00221916208 9,-4.4408921e-16 Z M9,2 C11.220375,2 13,3.7796254 13,6 L13,7.9453125 C11.794081,7.3453537 10.438486,7 9,7 C7.561514,7 6.205919,7.3453537 5,7.9453125 L5,6 C5,3.7796254 6.779625,2 9,2 Z M9,14 C10.105,14 11,14.895 11,16 C11,16.738 10.595,17.375656 10,17.722656 L10,19 C10,19.552 9.552,20 9,20 C8.448,20 8,19.552 8,19 L8,17.722656 C7.405,17.376656 7,16.739 7,16 C7,14.895 7.895,14 9,14 Z" id="Shape"></path>
        </g>
    </g>
</svg>