<?xml version="1.0" encoding="UTF-8"?>
<svg width="25px" height="24px" viewBox="0 0 25 24" version="1.1" xmlns="http://www.w3.org/2000/svg" xmlns:xlink="http://www.w3.org/1999/xlink">
    <!-- Generator: Sketch 59.1 (86144) - https://sketch.com -->
    <title>icons8-sign_out</title>
    <desc>Created with Sketch.</desc>
    <g id="Symbols" stroke="none" stroke-width="1" fill="none" fill-rule="evenodd">
        <g id="Icons/Medium/Logout" transform="translate(-3.000000, -4.000000)" fill="#526484">
            <g id="icons8-sign_out" transform="translate(3.000000, 4.000000)">
                <path d="M12,0 C5.3845336,0 0,5.3845336 0,12 C0,18.615466 5.3845336,24 12,24 C14.554923,24 16.9167,23.181425 18.853516,21.818359 C19.3054832,21.5006873 19.4143512,20.8767717 19.0966795,20.4248045 C18.7790078,19.9728373 18.1550922,19.8639693 17.703125,20.181641 C16.081941,21.322575 14.129077,22 12,22 C6.4654664,22 2,17.534534 2,12 C2,6.4654664 6.4654664,2 12,2 C14.129077,2 16.081941,2.6774247 17.703125,3.8183594 C17.9954967,4.02385698 18.3752909,4.05776614 18.6994428,3.90731364 C19.0235947,3.75686114 19.242858,3.44490429 19.2746383,3.08895422 C19.3064186,2.73300416 19.1458877,2.38713815 18.853516,2.1816406 C16.9167,0.8185753 14.554923,0 12,0 Z M19.990234,6.9902344 C19.5833111,6.99034159 19.2170255,7.23699022 19.0639037,7.61400475 C18.9107818,7.99101927 19.0013579,8.42321908 19.292969,8.707031 L21.585938,11 L11,11 C10.6393641,10.9948997 10.3039186,11.1843753 10.1221123,11.4958728 C9.94030592,11.8073704 9.94030592,12.1926296 10.1221123,12.5041272 C10.3039186,12.8156247 10.6393641,13.0051003 11,13 L21.585938,13 L19.292969,15.292969 C19.0317282,15.5437856 18.9264934,15.916236 19.0178502,16.2666781 C19.109207,16.6171201 19.3828799,16.890793 19.7333219,16.9821498 C20.083764,17.0735066 20.4562144,16.9682718 20.707031,16.707031 L24.619141,12.794922 C24.8674821,12.6054793 25.013053,12.3108881 25.0126705,11.9985395 C25.0122865,11.6861908 24.8659932,11.3919577 24.617188,11.203125 L20.707031,7.292969 C20.5187599,7.09943613 20.2602358,6.9902344 19.990234,6.9902344 Z" id="Shape"></path>
            </g>
        </g>
    </g>
</svg>