<?xml version="1.0" encoding="UTF-8"?>
<svg width="32px" height="32px" viewBox="0 0 32 32" version="1.1" xmlns="http://www.w3.org/2000/svg" xmlns:xlink="http://www.w3.org/1999/xlink">
    <!-- Generator: Sketch 59.1 (86144) - https://sketch.com -->
    <title>Slice 1</title>
    <desc>Created with Sketch.</desc>
    <g id="Page-1" stroke="none" stroke-width="1" fill="none" fill-rule="evenodd">
        <g id="Icons/Light-Gray/Dashboard" fill="#99A9BE">
            <g id="icons8-web" transform="translate(4.000000, 5.000000)">
                <path d="M2.41666667,0 C1.35770833,0 0.5,0.895 0.5,2 L0.5,5 L0.5,21 C0.5,21.5522619 0.929082369,22 1.45833333,22 L22.5416667,22 C23.0709176,22 23.5,21.5522619 23.5,21 L23.5,4 L23.5,2 C23.5,0.895 22.6422917,0 21.5833333,0 L2.41666667,0 Z M2.41666667,5 L21.5833333,5 L21.5833333,20 L2.41666667,20 L2.41666667,5 Z M5.29166667,8 C4.94605725,7.99489971 4.62458869,8.1843753 4.4503576,8.49587285 C4.27612651,8.8073704 4.27612651,9.1926296 4.4503576,9.50412715 C4.62458869,9.8156247 4.94605725,10.0051003 5.29166667,10 L9.125,10 C9.47060942,10.0051003 9.79207797,9.8156247 9.96630907,9.50412715 C10.1405402,9.1926296 10.1405402,8.8073704 9.96630907,8.49587285 C9.79207797,8.1843753 9.47060942,7.99489971 9.125,8 L5.29166667,8 Z M12.9583333,8 C12.4293333,8 12,8.448 12,9 L12,17 C12,17.552 12.4293333,18 12.9583333,18 L18.7083333,18 C19.2373333,18 19.6666667,17.552 19.6666667,17 L19.6666667,9 C19.6666667,8.448 19.2373333,8 18.7083333,8 L12.9583333,8 Z M5.29166667,12 C4.94605725,11.9948997 4.62458869,12.1843753 4.4503576,12.4958728 C4.27612651,12.8073704 4.27612651,13.1926296 4.4503576,13.5041272 C4.62458869,13.8156247 4.94605725,14.0051003 5.29166667,14 L9.125,14 C9.47060942,14.0051003 9.79207797,13.8156247 9.96630907,13.5041272 C10.1405402,13.1926296 10.1405402,12.8073704 9.96630907,12.4958728 C9.79207797,12.1843753 9.47060942,11.9948997 9.125,12 L5.29166667,12 Z M5.29166667,16 C4.94605725,15.9948997 4.62458869,16.1843753 4.4503576,16.4958728 C4.27612651,16.8073704 4.27612651,17.1926296 4.4503576,17.5041272 C4.62458869,17.8156247 4.94605725,18.0051003 5.29166667,18 L9.125,18 C9.47060942,18.0051003 9.79207797,17.8156247 9.96630907,17.5041272 C10.1405402,17.1926296 10.1405402,16.8073704 9.96630907,16.4958728 C9.79207797,16.1843753 9.47060942,15.9948997 9.125,16 L5.29166667,16 Z" id="Shape"></path>
            </g>
        </g>
    </g>
</svg>