<?xml version="1.0" encoding="UTF-8"?>
<svg width="26px" height="28px" viewBox="0 0 26 28" version="1.1" xmlns="http://www.w3.org/2000/svg" xmlns:xlink="http://www.w3.org/1999/xlink">
    <!-- Generator: Sketch 59.1 (86144) - https://sketch.com -->
    <title>Slice 1</title>
    <desc>Created with Sketch.</desc>
    <g id="Page-1" stroke="none" stroke-width="1" fill="none" fill-rule="evenodd">
        <path d="M16.5158669,15.9187873 L17.6267379,17.0230756 L14.3579398,17.0230756 L14.3579398,13.7736473 L15.7454714,15.1529569 C16.5764291,14.2028952 17.0819382,12.9683711 17.0819382,11.6073618 C17.0819382,11.4571444 17.0715301,11.3006545 17.0574791,11.1376981 C17.0556577,11.1199799 17.054812,11.1021969 17.054747,11.0843493 C17.0544868,10.7852079 17.2981667,10.5425193 17.5990913,10.5421945 C17.8856397,10.5415493 18.1237253,10.7616051 18.143891,11.0457442 C18.159243,11.2228623 18.1715375,11.4098741 18.1715375,11.6073618 C18.1715375,13.2611753 17.5421719,14.7712379 16.5158669,15.9187873 M11.6339413,6.19164796 C11.4828286,6.19164796 11.3254058,6.2019944 11.1614781,6.21596209 C10.8615943,6.24131086 10.5978137,6.02022041 10.5721837,5.72211365 C10.5465537,5.42394224 10.7689621,5.16146603 11.0689759,5.13598792 C11.2471498,5.12079159 11.4352765,5.1085052 11.6339413,5.1085052 C13.2976132,5.1085052 14.8166774,5.73414139 15.9710672,6.75436487 L17.0819382,5.65007658 L17.0819382,8.89950487 L13.8131401,8.89950487 L15.2006717,7.52019531 C14.2449467,6.6942262 13.0030636,6.19164796 11.6339413,6.19164796 M12.1989718,18.078671 C12.0207329,18.0939966 11.8326062,18.1062183 11.6339413,18.1062183 C9.97026948,18.1062183 8.45120534,17.4805822 7.29681547,16.4603587 L6.18594452,17.564647 L6.18594452,14.3152187 L9.45474262,14.3152187 L8.06721101,15.6945282 C9.02293602,16.520562 10.2648841,17.0230756 11.6339413,17.0230756 C11.7850541,17.0230756 11.9424769,17.0127938 12.1064046,16.9987615 C12.4059632,16.9736713 12.6693535,17.1945031 12.6952437,17.4921572 C12.7211338,17.7903287 12.4989857,18.0529989 12.1989718,18.078671 M5.71380648,12.6626338 C5.41379261,12.6882413 5.14975179,12.4672801 5.1239917,12.169044 C5.10870479,11.9918613 5.09634515,11.8048494 5.09634515,11.6073618 C5.09634515,9.95354827 5.72571076,8.4434856 6.75201578,7.29593626 L5.64114484,6.19164796 L8.90994293,6.19164796 L8.90994293,9.44107625 L7.52241132,8.06176669 C6.69151863,9.01182839 6.18594452,10.2464171 6.18594452,11.6073618 C6.18594452,11.7575791 6.19635263,11.914069 6.21040359,12.0770254 C6.23577336,12.3750028 6.01356014,12.637091 5.71380648,12.6626338 M25.7545637,14.3973435 L25.7249656,14.3615837 C25.7146876,14.3493619 25.7040843,14.3374635 25.6932209,14.3257591 L22.7055069,10.766843 C22.2713584,4.82973335 18.2667718,0.155147846 12.221089,0.00376652058 C6.3492218,-0.144898865 1.08759525,4.12378293 0.158085675,9.88972368 C-0.537436499,14.2061284 1.11673796,18.1706896 4.04506066,20.7327264 C4.9442566,21.5189264 5.41619949,22.68206 5.41619949,23.8731291 L5.41619949,28 L16.2498095,28 L16.2498095,26.3214844 C16.2498095,25.3941848 16.8458692,24.5719663 17.7309491,24.2790975 L21.2687969,23.1074926 C22.1528361,22.8134598 22.7499365,21.9902713 22.7499365,21.0629718 L22.7499365,16.9549831 L25.2065765,16.1136883 C25.6752669,15.9842932 25.9997398,15.5602185 26,15.0767165 C25.9992844,14.8289193 25.9125718,14.5890113 25.7545637,14.3973435" id="Fill-1" fill="#99A9BE"></path>
    </g>
</svg>