<?xml version="1.0" encoding="UTF-8"?>
<svg width="24px" height="25px" viewBox="0 0 24 25" version="1.1" xmlns="http://www.w3.org/2000/svg" xmlns:xlink="http://www.w3.org/1999/xlink">
    <!-- Generator: Sketch 59.1 (86144) - https://sketch.com -->
    <title>Slice 1</title>
    <desc>Created with Sketch.</desc>
    <g id="Page-1" stroke="none" stroke-width="1" fill="none" fill-rule="evenodd">
        <g id="icons8-doorbell" fill="#99A9BE">
            <path d="M12,0 C10.895,0 10,0.895 10,2 L10,2.2617188 C6.5517488,3.1512979 4,6.2740449 4,10 L4,12.394531 C4,13.984531 3.6734531,15.547 3.0644531,17 L20.935547,17 C20.326547,15.548 20,13.984531 20,12.394531 L20,10 C20,6.2740449 17.448251,3.1512979 14,2.2617188 L14,2 C14,0.895 13.105,0 12,0 Z M2,19 C1.63936408,18.9948997 1.30391864,19.1843753 1.12211228,19.4958728 C0.940305922,19.8073704 0.940305922,20.1926296 1.12211228,20.5041272 C1.30391864,20.8156247 1.63936408,21.0051003 2,21 L9.175781,21 C9.06079588,21.3209248 9.00135104,21.6591004 9,22 C9,23.6568542 10.3431458,25 12,25 C13.6568542,25 15,23.6568542 15,22 C14.9992759,21.6592131 14.940492,21.3210408 14.826172,21 L22,21 C22.3606359,21.0051003 22.6960814,20.8156247 22.8778877,20.5041272 C23.0596941,20.1926296 23.0596941,19.8073704 22.8778877,19.4958728 C22.6960814,19.1843753 22.3606359,18.9948997 22,19 L12,19 L2,19 Z" id="Shape"></path>
        </g>
    </g>
</svg>