<?xml version="1.0" encoding="UTF-8"?>
<svg width="22px" height="22px" viewBox="0 0 22 22" version="1.1" xmlns="http://www.w3.org/2000/svg" xmlns:xlink="http://www.w3.org/1999/xlink">
    <title>icons8-planner</title>
    <g id="Symbols" stroke="none" stroke-width="1" fill="none" fill-rule="evenodd">
        <g id="Icons/Light-Gray/Date" transform="translate(-5.000000, -5.000000)" fill="#99A9BE">
            <g id="icons8-planner" transform="translate(5.000000, 5.000000)">
                <g id="icons8-calendar">
                    <path d="M20,0 L2,0 C0.895,0 0,0.895 0,2 L0,20 C0,21.105 0.895,22 2,22 L20,22 C21.105,22 22,21.105 22,20 L22,2 C22,0.895 21.105,0 20,0 Z M3,19 C2.448,19 2,18.552 2,18 C2,17.448 2.448,17 3,17 C3.552,17 4,17.448 4,18 C4,18.552 3.552,19 3,19 Z M3,15 C2.448,15 2,14.552 2,14 C2,13.448 2.448,13 3,13 C3.552,13 4,13.448 4,14 C4,14.552 3.552,15 3,15 Z M7,19 C6.448,19 6,18.552 6,18 C6,17.448 6.448,17 7,17 C7.552,17 8,17.448 8,18 C8,18.552 7.552,19 7,19 Z M7,15 C6.448,15 6,14.552 6,14 C6,13.448 6.448,13 7,13 C7.552,13 8,13.448 8,14 C8,14.552 7.552,15 7,15 Z M7,11 C6.448,11 6,10.552 6,10 C6,9.448 6.448,9 7,9 C7.552,9 8,9.448 8,10 C8,10.552 7.552,11 7,11 Z M11,19 C10.448,19 10,18.552 10,18 C10,17.448 10.448,17 11,17 C11.552,17 12,17.448 12,18 C12,18.552 11.552,19 11,19 Z M11,15 C10.448,15 10,14.552 10,14 C10,13.448 10.448,13 11,13 C11.552,13 12,13.448 12,14 C12,14.552 11.552,15 11,15 Z M11,11 C10.448,11 10,10.552 10,10 C10,9.448 10.448,9 11,9 C11.552,9 12,9.448 12,10 C12,10.552 11.552,11 11,11 Z M15,19 C14.448,19 14,18.552 14,18 C14,17.448 14.448,17 15,17 C15.552,17 16,17.448 16,18 C16,18.552 15.552,19 15,19 Z M15,15 C14.448,15 14,14.552 14,14 C14,13.448 14.448,13 15,13 C15.552,13 16,13.448 16,14 C16,14.552 15.552,15 15,15 Z M14,10 C14,9.448 14.448,9 15,9 C15.552,9 16,9.448 16,10 C16,10.552 15.552,11 15,11 C14.448,11 14,10.552 14,10 Z M19,15 C18.448,15 18,14.552 18,14 C18,13.448 18.448,13 19,13 C19.552,13 20,13.448 20,14 C20,14.552 19.552,15 19,15 Z M19,11 C18.448,11 18,10.552 18,10 C18,9.448 18.448,9 19,9 C19.552,9 20,9.448 20,10 C20,10.552 19.552,11 19,11 Z M20,6 L2,6 L2,2 L20,2 L20,6 Z" id="Shape"></path>
                </g>
            </g>
        </g>
    </g>
</svg>