<?xml version="1.0" encoding="UTF-8"?>
<svg width="24px" height="24px" viewBox="0 0 24 24" version="1.1" xmlns="http://www.w3.org/2000/svg" xmlns:xlink="http://www.w3.org/1999/xlink">
    <!-- Generator: Sketch 59.1 (86144) - https://sketch.com -->
    <title>icons8-safety_float</title>
    <desc>Created with Sketch.</desc>
    <g id="Symbols" stroke="none" stroke-width="1" fill="none" fill-rule="evenodd">
        <g id="Icons/Medium/Support" transform="translate(-4.000000, -4.000000)" fill="#526484">
            <g id="icons8-safety_float" transform="translate(4.000000, 4.000000)">
                <path d="M22.948,13.033 C22.98,12.693 23,12.349 23,12 C23,11.651 22.98,11.307 22.948,10.967 C23.497,10.882 23.896,10.374 23.791,9.808 C22.892,4.941 19.06,1.109 14.193,0.21 C13.627,0.105 13.119,0.504 13.034,1.053 C13.022,1.051 13.011,1.052 13,1.051 L13,2 C13,2.552 12.552,3 12,3 C11.448,3 11,2.552 11,2 L11,1.051 C10.989,1.052 10.978,1.052 10.967,1.053 C10.882,0.504 10.374,0.105 9.808,0.21 C4.941,1.109 1.108,4.941 0.21,9.808 C0.105,10.374 0.504,10.882 1.053,10.967 C1.052,10.981 2.052,10.996 2.051,11.01 C2.578,11.038 3,11.465 3,12 C3,12.534 2.578,12.962 2.05,12.99 C2.051,13.004 1.051,13.019 1.052,13.033 C0.503,13.118 0.104,13.626 0.209,14.192 C1.108,19.059 4.94,22.891 9.807,23.79 C10.373,23.895 10.881,23.496 10.966,22.947 C11.307,22.98 11.651,23 12,23 C12.349,23 12.693,22.98 13.033,22.948 C13.118,23.497 13.626,23.896 14.192,23.791 C19.059,22.892 22.892,19.059 23.79,14.193 C23.895,13.626 23.497,13.118 22.948,13.033 Z M20,13 L19.92,13 L18.698,13 C18.269,13 17.873,13.27 17.753,13.682 C17.182,15.64 15.64,17.182 13.682,17.753 C13.27,17.874 13,18.269 13,18.699 L13,18.921 L13,20 C13,20.552 12.552,21 12,21 C11.448,21 11,20.552 11,20 L11,18.92 L11,18.698 C11,18.269 10.73,17.873 10.318,17.753 C8.36,17.182 6.818,15.64 6.247,13.682 C6.126,13.27 5.731,13 5.301,13 L5.08,13 C5.033,12.672 5,12.34 5,12 C5,11.66 5.033,11.328 5.08,11 L5.302,11 C5.731,11 6.127,10.73 6.247,10.318 C6.818,8.36 8.36,6.818 10.318,6.247 C10.73,6.126 11,5.731 11,5.301 L11,5.08 C11.328,5.033 11.66,5 12,5 C12.34,5 12.672,5.033 13,5.08 L13,5.302 C13,5.731 13.27,6.127 13.682,6.247 C15.64,6.818 17.182,8.36 17.753,10.318 C17.874,10.73 18.269,11 18.699,11 L19.921,11 L20,11 C20.552,11 21,11.448 21,12 C21,12.552 20.552,13 20,13 Z" id="Shape"></path>
            </g>
        </g>
    </g>
</svg>