<?xml version="1.0" encoding="UTF-8"?>
<svg width="24px" height="20px" viewBox="0 0 24 20" version="1.1" xmlns="http://www.w3.org/2000/svg" xmlns:xlink="http://www.w3.org/1999/xlink">
    <title>icons8-telephone</title>
    <g id="Symbols" stroke="none" stroke-width="1" fill="none" fill-rule="evenodd">
        <g id="Icons/Light-Gray/Phone" transform="translate(-4.000000, -6.000000)" fill="#99A9BE" fill-rule="nonzero">
            <g id="icons8-telephone" transform="translate(4.000000, 6.000000)">
                <path d="M12.001953,0 C2.4679531,0 1,2.8116563 1,5.347656 C1,6.159656 1.2105469,6.721797 1.4355469,7.091797 C1.6675469,7.471797 2.1149219,7.655969 2.5449219,7.542969 C3.6179219,7.262969 5.9328594,6.656953 7.005859,6.376953 C7.358859,6.284953 7.62875,6.007297 7.71875,5.654297 L8.171875,3.8652344 C8.272875,3.4652344 8.603672,3.1701406 9.013672,3.1191406 C9.721672,3.0321406 10.885,2.9140625 12,2.9140625 C13.114,2.9140625 14.277328,3.0321406 14.986328,3.1191406 C15.396328,3.1691406 15.727125,3.4642344 15.828125,3.8652344 L16.28125,5.654297 C16.37025,6.007297 16.645047,6.284953 16.998047,6.376953 L21.453125,7.542969 C21.884125,7.654969 22.334406,7.470844 22.566406,7.089844 C22.790406,6.718844 23,6.157656 23,5.347656 C23,2.8116563 21.535953,0 12.001953,0 Z M9.984375,6.98620586 C9.4328588,6.99494907 8.99244728,7.44846814 9,8 L9,8.003906 C8.337818,8.015647 7.697835,8.242316 7.179688,8.65625 L4.2363281,11.009766 C3.4413281,11.645766 2.9193906,12.560359 2.7753906,13.568359 L2.1425781,18 L2,18 C1.63936408,17.9948997 1.30391864,18.1843753 1.12211228,18.4958728 C0.940305922,18.8073704 0.940305922,19.1926296 1.12211228,19.5041272 C1.30391864,19.8156247 1.63936408,20.0051003 2,20.0001004 L22,20.0001004 C22.3606359,20.0051003 22.6960814,19.8156247 22.8778877,19.5041272 C23.0596941,19.1926296 23.0596941,18.8073704 22.8778877,18.4958728 C22.6960814,18.1843753 22.3606359,17.9948997 22,18 L21.857422,18 L21.224609,13.568359 C21.080609,12.561359 20.558672,11.645766 19.763672,11.009766 L16.822266,8.65625 C16.304118,8.242316 15.662182,8.015647 15,8.003906 L15,8 C15.0037015,7.72969967 14.8978233,7.46941335 14.7064903,7.27844828 C14.5151573,7.08748321 14.2546677,6.98210627 13.984375,6.98620586 C13.4328588,6.99494907 12.9924473,7.44846814 13,8 L11,8 C11.0037015,7.72969967 10.8978233,7.46941335 10.7064903,7.27844828 C10.5151573,7.08748321 10.2546677,6.98210627 9.984375,6.98620586 Z M10,11 C10.552,11 11,11.448 11,12 C11,12.552 10.552,13 10,13 C9.448,13 9,12.552 9,12 C9,11.448 9.448,11 10,11 Z M14,11 C14.552,11 15,11.448 15,12 C15,12.552 14.552,13 14,13 C13.448,13 13,12.552 13,12 C13,11.448 13.448,11 14,11 Z M10,15 C10.552,15 11,15.448 11,16 C11,16.552 10.552,17 10,17 C9.448,17 9,16.552 9,16 C9,15.448 9.448,15 10,15 Z M14,15 C14.552,15 15,15.448 15,16 C15,16.552 14.552,17 14,17 C13.448,17 13,16.552 13,16 C13,15.448 13.448,15 14,15 Z" id="Shape"></path>
            </g>
        </g>
    </g>
</svg>