<?xml version="1.0" encoding="UTF-8"?>
<svg width="22px" height="23px" viewBox="0 0 22 23" version="1.1" xmlns="http://www.w3.org/2000/svg" xmlns:xlink="http://www.w3.org/1999/xlink">
    <!-- Generator: Sketch 59.1 (86144) - https://sketch.com -->
    <title>Slice 1</title>
    <desc>Created with Sketch.</desc>
    <g id="Page-1" stroke="none" stroke-width="1" fill="none" fill-rule="evenodd">
        <g id="icons8-person" fill="#99A9BE">
            <path d="M11,0 C7.686,0 5,2.686 5,6 L5,7 C5,10.314 7.686,13 11,13 C14.314,13 17,10.314 17,7 L17,6 C17,2.686 14.314,0 11,0 Z M7.097656,16.552734 C4.1626562,17.319734 1.3940469,18.763797 0.3730469,20.091797 C-0.5409531,21.279797 0.329125,23 1.828125,23 L20.169922,23 C21.668922,23 22.539,21.278844 21.625,20.089844 C20.604,18.761844 17.836344,17.319734 14.902344,16.552734 C13.852344,17.453734 12.491,18 11,18 C9.508,18 8.147656,17.452734 7.097656,16.552734 Z" id="Shape"></path>
        </g>
    </g>
</svg>